<svg xmlns="http://www.w3.org/2000/svg" xmlns:xlink="http://www.w3.org/1999/xlink" id="Layer_1" x="0px" y="0px" viewBox="0 0 558 407" style="enable-background:new 0 0 558 407;" xml:space="preserve"><style type="text/css">	.st0{fill:#E8A777;}	.st1{opacity:0.11;fill:#7F6E65;}	.st2{fill:#F4C092;}	.st3{opacity:0.41;fill:#E28140;}	.st4{fill:#EA6374;}	.st5{fill:#BC7646;}	.st6{fill:#A55E2F;}	.st7{opacity:0.63;fill:#E28140;}	.st8{fill:#DB4D65;}	.st9{fill:#B53C3C;}	.st10{fill:#3F2F29;}	.st11{opacity:0.23;fill:#ED3737;}	.st12{opacity:0.32;fill:#FFFFFF;}	.st13{fill:#FFFFFF;}	.st14{fill:#F2A7AD;}	.st15{fill:#E2818D;}	.st16{fill:#C65467;}	.st17{fill:#F9EAEC;}	.st18{fill:#FFFAFB;}	.st19{opacity:0.62;fill:#EACED3;}	.st20{opacity:0.52;fill:#F9D6BB;}	.st21{fill:#EACED3;}	.st22{fill:#BABABA;}	.st23{fill:#69AEE2;}	.st24{fill:#555A5E;}	.st25{fill:#858789;}	.st26{fill:#FCC71D;}	.st27{fill:#BBD841;}	.st28{fill:#F42F2F;}	.st29{fill:#ED412F;}	.st30{fill:#D8281A;}	.st31{fill:#EFAA75;}	.st32{opacity:0.57;fill:#E28140;}	.st33{fill:#F2F9F8;}	.st34{opacity:0.81;fill:#E28140;}	.st35{fill:#EF3F3F;}	.st36{fill:#56998E;}	.st37{fill:#357C6E;}	.st38{fill:#68ADA3;}	.st39{fill:#A56C46;}	.st40{fill:#935C37;}	.st41{fill:#774624;}	.st42{opacity:0.17;fill:#FFFA89;}	.st43{fill:#FFCE43;}</style><g>	<path class="st0" d="M371.6,234.2c0,0-5.4,7.6-2.6,15.6c2.8,8,13.3,11.4,18.8,2.7c5.5-8.6,12.5-28.6,12.5-28.6l-20.5-6.3   L371.6,234.2z"></path>	<ellipse class="st1" cx="409.8" cy="311.9" rx="102.2" ry="17.7"></ellipse>	<g>		<path class="st2" d="M389.2,285.2c1.1,8.1-4.6,12.7-19.9,14.5s-23.9,2.9-25.8,2.5c-1.9-0.4-2.7-1.6-3-3.7c-0.2-2.2,1-3.4,0-5.4    c-1-2-2.4-2.9-2.4-5.5c-0.1-2.6,0-8-0.9-8.1l0,0c0.2-0.1,0.4,0,0.6,0.1c1,0.5,3.9,7.8,4.3,7.4c0.4-0.4,18.6-14,22-14.5    c3.3-0.5,5.6-1.6,5.6-1.6s24.2-14.2,28.8-8c0.7,1,1.4,2.6,2.2,4.8c-6.1,0.3-11.5,0.6-11.5,0.6S388.1,277.1,389.2,285.2z"></path>		<path class="st2" d="M349.5,303.9c0,0-6.7,0.5-8.4,0.4c-1.7-0.1-3-6.9-3.8-14.5c-0.6-5.8-0.6-9.8,0-10.1l0,0    c0.9,0,0.9,5.5,0.9,8.1c0.1,2.6,1.4,3.5,2.4,5.5c1,2-0.2,3.2,0,5.4c0.2,2.2,1.1,3.3,3,3.7c1.9,0.4,10.5-0.7,25.8-2.5    s21-6.4,19.9-14.5c-1.1-8.1,0-16.9,0-16.9s5.4-0.3,11.5-0.6c3.9,11.7,7.8,37.3,7.8,37.3L349.5,303.9z"></path>		<path class="st3" d="M349.5,303.9c0,0-6.7,0.5-8.4,0.4c-1.7-0.1-3-6.9-3.8-14.5c-0.6-5.8-0.6-9.8,0-10.1l0,0    c0.9,0,0.9,5.5,0.9,8.1c0.1,2.6,1.4,3.5,2.4,5.5c1,2-0.2,3.2,0,5.4c0.2,2.2,1.1,3.3,3,3.7c1.9,0.4,10.5-0.7,25.8-2.5    s21-6.4,19.9-14.5c-1.1-8.1,0-16.9,0-16.9s5.4-0.3,11.5-0.6c3.9,11.7,7.8,37.3,7.8,37.3L349.5,303.9z"></path>	</g>	<g>		<path class="st2" d="M479.3,295.2c0.1,3.4-0.1,7.2-0.8,11.4c-1.8,12.3-7.4,16.9-12.2,18.7l11.1-20    C477.5,305.3,478.9,299.8,479.3,295.2z"></path>		<path class="st2" d="M467.8,298.1c-3.4,5.6-4.1,8.1-7.6,11.6c-3.5,3.5-5.5,4.7-6.2,5.2c-0.7,0.4-7.9-3.8-12.7-12.5    c-3.8-6.9-2.8-11.1-2.2-12.6c1.4-3,3.3-7.3,6.8-10.4c15.8-14.1,24.5-5.8,24.5-5.8c3.9,1.8,7.4,7.7,8.5,16.7    C477.4,287,471.2,292.5,467.8,298.1z"></path>		<path class="st3" d="M478.9,290.2c0.5,1,0.5,2.9,0.4,5C479.3,293.5,479.1,291.8,478.9,290.2C478.9,290.2,478.9,290.2,478.9,290.2z    "></path>		<path class="st2" d="M440.1,309c0,0-5.8-8.7-1-19.2c-0.6,1.5-1.6,5.7,2.2,12.6c4.8,8.7,11.9,12.9,12.7,12.5    c0.7-0.4,2.7-1.7,6.2-5.2c3.5-3.5,4.1-6,7.6-11.6c3.4-5.6,9.6-11.1,11.2-7.9c0.2,1.6,0.3,3.2,0.4,5c-0.4,4.5-1.8,10.1-1.8,10.1    l-11.1,20c-2.4,0.9-3.8-0.8-5.2-0.7C457,324.9,440.1,309,440.1,309z"></path>		<path class="st3" d="M440.1,309c0,0-5.8-8.7-1-19.2c-0.6,1.5-1.6,5.7,2.2,12.6c4.8,8.7,11.9,12.9,12.7,12.5    c0.7-0.4,2.7-1.7,6.2-5.2c3.5-3.5,4.1-6,7.6-11.6c3.4-5.6,9.6-11.1,11.2-7.9c0.2,1.6,0.3,3.2,0.4,5c-0.4,4.5-1.8,10.1-1.8,10.1    l-11.1,20c-2.4,0.9-3.8-0.8-5.2-0.7C457,324.9,440.1,309,440.1,309z"></path>	</g>	<path class="st4" d="M373.9,267c0,0-32.2,16.3-32.3,16.7c-0.1,0.4,0.6,9.8,2.1,13.2c1.5,3.4,4.9,7.8,6,8.2   c1.1,0.4,61.9,1.3,61.9,1.3l27,2.2c0,0,9.6,8.6,12.1,10.7c2.4,2.1,9.9,5.9,10.6,5.7c0.7-0.2,0.9,0,0.9,0s-10.1-6.9,2.8-18.6   s18.2-3.5,18.2-3.5s-1.3-10.6-4.6-19.4c-3.2-8.8-5.1-10.1-5.1-10.1L373.9,267z"></path>	<path class="st5" d="M390.8,138.3c0,0-6.3,10.9-5.4,26.9c0.9,16,7.9,21.5,7.9,21.5s-3.8-5.8-5.1-13.3c-1.2-7.6,0.3-13.6,0.3-13.6   s-2,11.3,2.7,20.9c4.7,9.6,13.2,18.2,23.9,18.5c10.8,0.3,33.1,3,33.1,3s12.5-5.9,17.2-14.8c4.6-8.9,6.3-13.6,6.3-13.6   s-1.6,6.8-4.2,12.6c-2.6,5.8-5.8,10.1-5.8,10.1s10.1-3.6,16.5-12.6c6.4-9,7.7-20.6,7.7-20.6s-2.7,13.4-4.2,17.7   c-1.5,4.3-2.6,6.6-2.6,6.6s8.8-0.6,9.9-20.6c1.1-20-7-36.2-7-36.2L390.8,138.3z"></path>	<path class="st6" d="M480.2,138.2c0,0,4.6,7.6,5.8,17.4c1.2,9.8-2.2,20-2.2,20s1.6-12.5,0.6-17.9c-1-5.3-4.2-8.8-4.2-8.8   s1.2,13-2.8,24.5c-4,11.5-13.2,20.1-13.2,20.1s6.7-13.7,7-21.7c0.3-8,0.3-8,0.3-8s-5.6,16.9-14.1,26.2   c-8.4,9.3-12.6,11.4-12.6,11.4s7.6-6.6,10.2-11.2c2.6-4.5,3.9-12.3,3.9-12.3s-5.4,12.4-11.1,17c-5.7,4.6-9.8,5.9-9.8,5.9   s5.5-4.3,7.4-8.3c2-4,2.9-7.8,2.9-7.8s-6.4,11.1-9.8,13c-3.4,1.9-20.6,2.5-20.6,2.5s-2.3,1.3-6.8-4.6c-4.5-5.9-5.5-12.3-5.5-12.3   s-2.2,2.1,0,7.4c2.2,5.3,4.2,7.6,4.2,7.6s-5.4-3.2-9.3-11.6c-3.9-8.4-4.5-12-4.5-12l-4.4-15.7c0,0-2.1,5.8-1,13.9   c1,8.1,3.7,12.7,3.7,12.7s-9.6-11.7-5.2-29.5c4.5-17.9,6.2-18.4,6.2-18.4L480.2,138.2z"></path>	<path class="st2" d="M437.8,185.6c0,0-0.5,10.4,2.7,12.7c3.2,2.4,15.3,9.8,20.6,21.6s6.4,31.1,6.4,40.1c0,9.1,3.9,24.8-15.3,34.6   c-19.2,9.8-46.2,1.9-55.5-12.2c-9.3-14.2,0.2-35.5,1.2-40c1-4.5-0.5-14,1.8-23.1c2.3-9.1,13.7-18.3,15.5-22.4   c1.8-4,2.6-10.1,2.6-10.1L437.8,185.6z"></path>	<path class="st7" d="M438.5,195c0,0-2.5,4.8-11.1,4.6c-8.6-0.2-11.2-5.3-11.2-5.3l1.2-4.7c0,0,3,1.1,9.3,1.9c6.3,0.8,11.1-4,11.1-4   L438.5,195z"></path>	<path class="st4" d="M467,253.6c0.9-0.6,2.1,0,2.3,1.1c1,6.7,2.9,25-2.7,38.1c-6.9,16.2-40.2,23.1-61.5,10.5s-15.2-38.3-14.3-43.5   c0.3-1.6,0.6-3,0.8-4.1c0.3-1.2,1.7-1.6,2.5-0.7c2.9,3.3,10.9,8.1,33.2,7.4C452.2,261.5,463.1,256.2,467,253.6z"></path>	<path class="st8" d="M349.7,305l61.9,1.3c0,0,8,2.9,14.7,3.4c6.7,0.5,12.9-0.6,12.9-0.6s10.4,9.6,12.2,10.8   c1.8,1.2,6.8,3.9,6.8,3.9s-13.5-13.3-15.1-21.4c-1.6-8.1,11-21,17.7-24.6c6.7-3.5,10.2-2.8,10.2-2.8l-15-3.9l-18.8,17.5l-62.4-13.4   c0,0,0.2,7.9,4.3,12.4c4.1,4.5,4.1,10.3-6.4,12.7C362.2,302.7,349.7,305,349.7,305z"></path>	<path class="st2" d="M393.3,145.2c0,0,0,5.2-1,8.6c-0.9,3.5-6,10.7-0.4,20.8c5.6,10.2,19.6,18.2,37.9,17.3   c18.3-0.9,27.3-11.5,30.7-16.3c3.5-4.7,5-7.6,5-7.6s2.4,3.7,5.9,3.2c3.6-0.5,10.4-4,12.3-12.9c1.9-8.9-3.5-10.3-5.2-11.2   c-1.6-0.9-2.7-0.7-2.7-0.7s15.8-18.9,6-42.9c-9.8-24-43.7-32.2-68.7-17.2c-25,15-23.1,36.3-22,42.2   C392.4,134.5,393.5,141.9,393.3,145.2z"></path>	<path class="st7" d="M479.2,160.2c0,0,1.8-2.9-0.8-5.4c-2.6-2.6-8,3.1-8.8,6.2c-0.7,3.1,1.3,6.2,4.3,3c3-3.2,2.9-5,2.7-6.3   c-0.3-1.3-0.6-1.7-0.6-1.7s1.5-0.7,2.5,1C479.5,158.5,479.2,160.2,479.2,160.2z"></path>	<path class="st7" d="M420.8,156.5c0,0,1.3-2.2-3.2-2.9c-4.3-0.7-5.3,0.2-5.3,1.1c0,0.9-0.8,1.1-1,0.9c-0.3-0.4-0.6-0.3,0.2-2.4   c0.8-2,5.7-2.4,8.3-0.9c2.6,1.5,2.8,3.3,1.9,4C421,157.1,420.8,156.5,420.8,156.5z"></path>	<g>		<path class="st9" d="M418.3,168.8c3.9-0.6,6.2-2.9,7.1-4.2c0.3-0.4,0.2-0.9-0.2-1.1l0,0c-0.3-0.2-0.7-0.1-1,0.2    c-1,1.3-3.9,4.3-9.4,3.6c-5.4-0.7-6.3-4.5-6.5-6.1c0-0.4-0.3-0.7-0.7-0.7l0,0c-0.5,0-0.8,0.4-0.8,0.9c0.2,2,1.5,6.7,7.8,7.5    C416,169,417.2,168.9,418.3,168.8z"></path>	</g>	<path class="st10" d="M402.6,136.2c0,0,2.8,0,3.5,4.3c0.7,4.3,1,9.1-1.7,10.1c-2.7,1-5.2-2.1-5.7-5.7c-0.5-3.6-0.4-7.2,1.3-8.1   C401.7,136,402.6,136.2,402.6,136.2z"></path>	<path class="st7" d="M451.6,140.1c0,0-1.5-6-4-7.4c-2.5-1.3-5.5-1.2-5.9-1.5c-0.4-0.3-0.5-2,0.6-2.4c1.1-0.4,6.1,1.2,8.1,4.2   C452.2,136,452,141.6,451.6,140.1z"></path>	<path class="st7" d="M396.6,133.7c0,0,0.6-3.8,3.7-5c3.1-1.3,4.5,0,5.3-0.2c0.9-0.2,1.2-2,0.6-2.3c-0.6-0.3-5.4-0.8-8,2.1   C395.6,131.1,396.4,134.4,396.6,133.7z"></path>	<path class="st11" d="M439.5,157.7c0,0,7.6,0.2,8.7,2.9c1.1,2.8-4,3.3-7.5,3c-3.5-0.3-6.8-1-7.1-3.6   C433.3,157.5,438,157.6,439.5,157.7z"></path>	<path class="st11" d="M398.1,152.5c0,0,6.2,0.4,7.2,3.1c0.9,2.8-3.2,3.2-6.1,2.8c-2.8-0.4-5.6-1.2-5.9-3.8   C393.1,152.1,396.9,152.4,398.1,152.5z"></path>	<path class="st12" d="M399.3,140.1c0.3,1.1,1.7,1.5,3.2,1.1c1.5-0.4,2.5-1.7,2.2-2.7c-0.3-1.1-1.7-1.5-3.2-1.1   C400,137.9,399,139.1,399.3,140.1z"></path>	<path class="st13" d="M401.7,140.8c-0.1-0.8-0.8-1.4-1.6-1.3c-0.8,0.1-1.3,0.9-1.2,1.7c0.1,0.8,0.8,1.4,1.6,1.3   C401.3,142.4,401.9,141.7,401.7,140.8z"></path>	<path class="st13" d="M401.5,143.7c0-0.2-0.2-0.4-0.5-0.4c-0.2,0-0.4,0.3-0.4,0.5c0,0.2,0.2,0.4,0.5,0.4   C401.4,144.1,401.6,143.9,401.5,143.7z"></path>	<g>		<path class="st10" d="M447.6,149.7c0,0,1.7-3.7,0.1-7.2c-1.6-3.5-7.5-3.2-8.8,3.7c-1.3,6.9,0.6,9,2.9,9.4    C444.1,155.9,446.7,153.1,447.6,149.7z"></path>		<path class="st12" d="M442.1,142.3c-0.3,1,0.6,2.3,2.1,2.8c1.5,0.5,2.9,0.1,3.3-0.9c0.3-1-0.6-2.3-2.1-2.8    C443.9,140.8,442.5,141.3,442.1,142.3z"></path>		<path class="st13" d="M442.8,145.2c0.1-0.8-0.4-1.6-1.2-1.8c-0.8-0.1-1.5,0.4-1.7,1.3c-0.1,0.8,0.4,1.6,1.2,1.8    C441.9,146.6,442.7,146.1,442.8,145.2z"></path>		<path class="st13" d="M441.8,147.9c0-0.2-0.1-0.5-0.3-0.5c-0.2,0-0.5,0.1-0.5,0.4c0,0.2,0.1,0.5,0.3,0.5    C441.5,148.3,441.8,148.1,441.8,147.9z"></path>	</g>	<path class="st5" d="M392.3,111.1c0,0-8-0.3-6.8,14.7c1.1,15,7.8,15.2,7.8,15.2s-5.6-15.8,13.1-25.2c18.8-9.4,32-6.7,32-6.7   s-14-1.5-24.5,4.2c-10.5,5.7-13.7,10.1-13.7,10.1s2.2,0.7,10.7-0.3c8.5-1,15.1-3.9,15.1-3.9s-5.1,3-11.6,4.1   c-6.5,1.1-7.9,1.1-7.9,1.1s11.8,6.1,24.6,3.5c12.8-2.6,21.5-8.7,21.5-8.7s-5.7,4.5-13.7,7c-8,2.5-9.9,2.5-9.9,2.5   s12.6,3.2,22.9,2.4c10.3-0.8,13.7-0.7,13.7-0.7s-5.6,5.5-7.4,12.1c-1.8,6.6-0.7,16.6-0.7,16.6s2.4-7,3.7-12.3   c1.4-5.3,4.3-8.3,4.3-8.3s-4.2,4.5-6.4,18.3c-2.2,13.8,1.5,23.2,1.5,23.2s0.2-7.1,1.3-12.9c1.1-5.8,3.1-9.4,3.1-9.4   s-2.5,8.2-2.9,12.3c-0.4,4.1-0.3,8.5-0.3,8.5s10.6-12.3,12.8-23.8c2.3-11.5,2.2-14.4,2.2-14.4s6.9-32.5-31.4-41.1   c-38.4-8.6-51.3,7-51.3,7L392.3,111.1z"></path>	<path class="st6" d="M399.4,105.4c0,0,8.6-3.3,20.4-3.8c11.8-0.5,21.6,3,21.6,3s-7.9-1.1-15.7-0.5c-7.8,0.6-16.2,3.6-16.2,3.6   s11.8-2.9,23.4-2.6c11.6,0.3,19.7,5.6,19.7,5.6s-9.6-2.9-20.1-1.7c-10.6,1.2-16.4,3.4-16.4,3.4s18.2-3.9,27.9-1.5   c9.7,2.4,11.5,3.9,11.5,3.9s-5.2,5.3-16.5,9.1c-11.3,3.8-18.8,4.5-18.8,4.5s8.1,1.6,18.4-2c10.3-3.6,17.5-8.5,17.5-8.5   s1,1.4-2.1,4.6c-3.1,3.3-8.3,4.3-8.3,4.3s4.4,0,7.6-1.3c3.2-1.3,4.9-2.1,5.5-1.5s2.1,4.7,2.1,4.7s-6.9,1.6-11.6,1.6   c-4.6,0-13.1-0.2-13.1-0.2s10.3,1.4,21.1,0.6c10.8-0.8,10.9-1.3,10.9-1.3l-14.9-24.3l-18.7-7.3c0,0-24.5,0-24.8,0   C409.3,97.9,399.4,105.4,399.4,105.4z"></path>	<path class="st6" d="M465.8,133.4c0,0-3.7,4.5-5.8,12.4c-2.1,8-2.6,15.7-2.6,15.7s2-10.8,4.2-15.7c2.2-4.9,9.2-11.6,9.2-11.6   s-5.9,10.7-7,14.4c-1.1,3.7-1.3,5.4-1.3,5.4s2.3-7.3,4.5-11.4c2.2-4.1,4.3-6.6,5.2-6c0.9,0.6,1.6,5.2,0,7.9c-1.6,2.7-6,6.7-8,16.7   c-2,9.9-1.7,12.7-1.7,12.7s0.8-8.6,5.2-17.4c4.5-8.8,6.7-10.1,6.7-10.1s-0.9,5.6-2.6,10.3c-1.7,4.6-3.6,7.9-3.6,7.9   s6.6-8.9,7.8-18.2c1.2-9.3-3.3-15-3.3-15L465.8,133.4z"></path>	<path class="st5" d="M471.7,87.6c0,0,0.7-7.2-4.2-10.6c-4.8-3.4-7.5-2.8-7.5-2.8s4.1,1.5,5.2,2.4c1.1,0.8,1.2,2.2,1.2,2.2   s-1-2.8-6.4-4c-5.4-1.2-9.8-5.8-27.5-0.7c-17.7,5.1-20.4,9.7-23.8,10.3c-3.4,0.6-5.2-3.5-5.2-3.5s-0.1,3.9,2.9,5.4   c3,1.5,4.8,1.7,4.8,1.7s30.3,2.2,44.7,10.7c14.4,8.5,27.6,35.7,27.6,35.7s-0.3,2.1,1.4,3.8c1.7,1.6,3.2,1,3.2,1s-3.2-1.6-3.2-4.8   c0-3.2,7.5-4.9,4.8-24.4C487.2,90.7,471.7,87.6,471.7,87.6z"></path>	<path class="st6" d="M481.5,95.9c0,0,6.3,5.1,7.8,16.7c1.5,11.6-5.2,19.2-5.2,19.2l-2.1-2.6c0,0,1.2-13,0-16.2   c-1.2-3.2-2.4-4.8-2.4-4.8s5,6.6,5,8.3c0,1.7-0.3,7.5-0.3,8.1s2.4-6.8,1.5-12.3c-0.9-5.5-4.2-10.4-4.2-10.4s4.8,4,5.8,12   c1,8-2.8,14.4-2.8,14.4s5.1-7.6,4.1-15.3C487.5,105.2,481.5,95.9,481.5,95.9z"></path>	<path class="st14" d="M475.9,146.4c0,0-3.4-22.2-25.2-38.9c-21.8-16.8-54-2.9-56.9,2.1c-2.9,5-3.9-3.4-1.8-4.9   c2.2-1.5,2.2-1.5,2.2-1.5s-0.4-1.7,1-3.8c1.3-2.1,3.5-3.3,3.8-3.4c0.3-0.1,3.3-3.1,5.3-5.2c2-2.2,4.6-2.2,4.6-2.2s-0.6-2,3.4-2.6   c4.1-0.6,33.6-4.4,55.5,19.6c22,24,15,31.8,14.6,32.2c-0.4,0.4-1.1,0.7-1.1,0.7s0.3,1.5-0.6,3c-0.9,1.4-1.4,1.5-1.4,1.5   s0.3,0.8,0,1c-0.3,0.2-1,0.3-1,0.4C478.4,144.3,478.4,146.9,475.9,146.4z"></path>	<path class="st15" d="M418.1,85.3c0,0,0.4,1.1,0,1.7c-0.4,0.6-8.5,2.2-8.5,2.2h7.2l-2.4,1.9c0,0,2.1,0.9,1.9,1.6   c-0.2,0.7-8.8,3.2-8.8,3.2s7.4-0.6,7.9,0c0.5,0.6-2.9,0.4-7.6,1.5c-4.6,1.1-13.3,5.2-13.3,5.2s7.9-3.2,13.4-4.5   c5.4-1.3,6.9-1.1,7.5-0.3c0.6,0.8-1.8,2.7-1.8,2.7l3.8-0.6l2.9-14.7H418.1z"></path>	<path class="st15" d="M444.6,103.7c-0.1,0-2.2-1.4-2.5-1.7c-0.3-0.3,2.4-0.4,3.8,0c1.4,0.4,5.3,3,6.5,4.8s0.4,1.6-0.9,1   c-1.4-0.7-3.2-1.9-3.2-1.9l7.1,5.7l-1.8-7.1l-7.9-5.6l-6.7,2.6L444.6,103.7z"></path>	<path class="st15" d="M474.7,141.6c0,0-2.9-8-3.6-9.1c-0.7-1.1-0.6-2.6-0.6-2.6l8.6-6.4l2.8,1.9l1.3,3.7c0,0-0.9-1.3-1.4-1.8   c-0.4-0.6-1.1-0.2-1,0.3c0.1,0.4,1.4,6.2,1.4,6.2s-1.5-5.1-1.8-5.5c-0.3-0.3-1.2,0.3-1.1,0.7c0.1,0.3,0.5,1.6,0.5,1.6   s-0.5-1.2-1-1.2s-1.7,0.1-1.3,1.3c0.4,1.2,1.9,5.1,2.1,5.7c0.2,0.6,0.6,1.8,0.6,1.8s-1.4-3.9-2.2-4.8c-0.8-0.9-1.6-2.6-1.7-1.5   c-0.1,1.1,0.9,4.6,1.4,6c0.5,1.4,0.9,3.2,0.9,3.2s-1.1-3.3-1.5-4c-0.4-0.6-2.4-3.2-1.3-0.8c1.1,2.4,2.1,7,2.1,7s-3-9.2-4-10.2   c-1-1-1.4,0.1-0.7,1.7S474.7,141.6,474.7,141.6z"></path>	<path class="st6" d="M471.1,87.5c0,0,0.1-3.3-1-5.4c-1.1-2.1-1.8-2.6-1.8-2.6s1.2,3.2,1.4,4.3c0.2,1.1,0,3.4,0,3.4   s-0.1-4.8-4.8-8.4c-4.7-3.6-12.8-4.3-12.8-4.3s10.2,1.6,12.8,5.4c2.6,3.7,0.9,10.1,0.9,10.1s0.3-1.4-1.3-3.3   c-1.6-1.9-3.1-2.2-3.1-2.2s2.6,1.8,2.9,3.1c0.2,1.3,0.1,3.5,0.1,3.5s-2.6-4.8-6.8-6.6c-4.3-1.8-7.9-2-7.9-2s6.3,2.9,8.2,4.8   c1.9,1.9,2.5,5.3,2.5,5.3s-2.3-1.6-5-2.6c-2.7-1-3.9-1.2-3.9-1.2s3.6,2.1,4.5,3c0.9,0.9,1.7,2.6,1.7,2.6l-8.5-5.7l-0.4,3.1l9.7,5.1   l12.6-8.8L471.1,87.5z"></path>	<g>		<path class="st14" d="M459.7,99.1c0,0,0.9-1.3,0-2.3c-0.9-1-7.6-6.4-8.9-5.7c-1.3,0.7-6.5,6.1-5.7,8c0.9,1.9,6.8,7.1,8.9,6.7    C456,105.5,459.7,99.1,459.7,99.1z"></path>		<path class="st14" d="M450.6,92.2c0,0-1.5-8.1-8-14.8c-6.4-6.7-10.7-9.2-14.3-6.2c-3.6,3-4.6,4.4-4.3,6c0.2,1.6,0.3,1.6,0,2.7    c-0.3,1-5,6.8-7,11.1c-2,4.3-0.9,8.3,1.4,9.5c2.3,1.2,16.2,1.4,22.6,0.6c6.4-0.8,8.7-3.4,8.7-3.4L450.6,92.2z"></path>		<path class="st14" d="M459.7,96.9c0,0,9.6,1.2,17.5,5.8c7.9,4.6,11.4,13.4,10.4,16.6c-1,3.2-4.2,2.8-4.9,3.4s-0.1,2.9-2.1,3.9    c-2,0.9-3.8,1.1-4.2,1.8c-0.3,0.7-3.2,1.8-3.3,2.1c-0.2,0.3-2.8,3.6-5.6,3.8c-2.8,0.2-5.7-4.7-8.5-11.7c-2.8-7-5.9-18-5.9-18    L459.7,96.9z"></path>		<path class="st15" d="M450.4,91.4c0,0-2.4,1.3-4.1,4c-1.7,2.6-0.6,4.7-0.6,4.7l-2.4,0.7c0,0-0.1-1.6,0-2.3    c0.1-0.7-8.8-1.9-11.3-2.4c-2.5-0.5,10.8,0.1,12.4,0c1.6-0.1-7-1.9-8.2-2.8c-1.2-0.9,7.7,1.3,9.2,1.3c1.5,0-13.2-8.3-15.2-9.9    c-2-1.6,15.2,8.8,16.5,8.1c1.3-0.7-3.6-3.1-5.7-6c-2.1-2.9,2.4-0.1,5.2,2.2c2.8,2.3,4.6,4.1,3.1,1.4    C447.7,87.6,450.4,91.4,450.4,91.4z"></path>		<path class="st15" d="M459.7,96.9c0,0,1.3,0.6-1.2,4.3c-2.5,3.7-4.9,4.7-4.9,4.7l1.3,4.3c0,0-0.2-2.4,0.2-2.8    c0.4-0.4,4.7,6.9,6.1,8.2c1.5,1.3-4.2-8.9-4.3-9.3c-0.2-0.5,2.4,1.8,4.6,2.8c2.1,1-3.1-3.3-3.6-4c-0.5-0.7,12.4,8,13.8,8.8    c1.5,0.8-12.1-10-12.6-10.6c-0.5-0.6,2.4,0.3,5,0.5c2.6,0.3-0.7-1.7-2.4-2.1c-1.6-0.4-3-2.4,0.6-1.7c3.6,0.8,11.1,3,8.9,1.7    c-2.2-1.3-8-2.4-9-2.8c-1.1-0.3-0.9-1.7-0.9-1.7L459.7,96.9z"></path>		<path class="st16" d="M445.6,99.8c0,0-6.4,1.3-12.3,1.3c-5.9,0-13.5-0.2-14.5-1c-1-0.8-1.7-2,3.3-2.2c5-0.2,23.3,1.3,23.3,1.3    L445.6,99.8z"></path>		<path class="st16" d="M453.9,105.7c0,0,3.8,12.6,6.2,17.6c2.3,5,4.9,8.9,6.6,9.6c1.7,0.7,1-1.7-1.7-8.1    c-2.7-6.4-10.6-19.4-10.6-19.4L453.9,105.7z"></path>	</g>	<path class="st6" d="M397.1,114.4c0,0-6.9,4.5-8.5,11.9c-1.6,7.4,2.8,14,2.8,14S377.5,128.8,397.1,114.4z"></path>	<path class="st17" d="M477.4,271.1c-2.2-1.1-4-3.4-4-3.4s2.7-1.6,1.3-4.2c-1.4-2.6-3.7-4.9-3.7-4.9l-4.2-27.2   c-0.3-1.1-0.6-2.2-0.8-3.3c0-0.2-0.1-0.3-0.1-0.5c-0.5-1-0.8-2.1-1.2-3.1c-0.3-0.9-0.5-1.8-0.7-2.7c-0.7-1.5-1.5-2.9-2.2-4.4   c-0.7-1.4-1.3-2.9-1.9-4.4c-2.6-3.8-4.3-8.2-6.2-12.4c-1-1.4-0.9-1-1.6-2.5c-3.9,1.5-8.7,0.5-11.6,0.3c0,0,1.8,10.6-13.1,11.3   c-15,0.7-13.5-10.5-13.5-10.5L409,196c-0.6,1.2-1.3,2.3-1.9,3.5c-1.8,3.2-3.7,6.4-5.2,9.8c-1.2,3.4-2.1,7.1-3.3,10.5   c-0.5,1.4-1,2.9-1.6,4.3c0.1,0.1,0.1,0.1,0.1,0.1s-4.9,27.6-6.4,29.1c-1.5,1.5-3-0.4-4.1,2.2c-1.1,2.6,0,4.6,0,4.6s-1.3-1-3,0   c-1.7,1-9,4.1-9.5,5.5c-0.5,1.4-2,27.7,27.8,29.5c29.8,1.9,39.6-0.8,45.7-8.9c6.1-8.1,14.1-14.4,23.4-11.4   C480.4,278,479.6,272.2,477.4,271.1z"></path>	<path class="st18" d="M466.1,227c0,0,1,11.6-9.5,12.9c-10.5,1.3-12.8-8.6-12.8-8.6s-1.2,11.1-15.6,11.2   c-14.4,0-12.8-12.2-12.8-12.2s-1.1,7.7-10.1,8.5c-9,0.8-9.1-8.9-9.1-8.9l-0.7,3.9c0,0-0.3,7.2,8.4,7.9c8.7,0.6,11-6.1,11-6.1   s-0.7,9.5,15.1,9.2c15.8-0.4,14.9-8.8,14.9-8.8s3.1,7.7,12.2,6.6c9.2-1.1,10-9.5,10-9.5L466.1,227z"></path>	<path class="st18" d="M442.2,198.3c0,0,2.9,14.1-16.6,13.4c-19.5-0.7-14.3-14.2-14.3-14.2l-2.8-1.8c0,0-7.7,18,17,18.9   c24.6,0.9,19.3-16.6,19.3-16.6L442.2,198.3z"></path>	<path class="st18" d="M459.5,231.9c0-1.2-0.9-2.2-2.1-2.2c-1.1,0-2.1,1-2.1,2.2c0,1.2,0.9,2.2,2.1,2.2   C458.5,234.1,459.5,233.2,459.5,231.9z"></path>	<ellipse class="st18" cx="429.1" cy="234.9" rx="2.1" ry="2.2"></ellipse>	<path class="st18" d="M404.9,232.7c0-1.2-0.9-2.2-2.1-2.2c-1.1,0-2.1,1-2.1,2.2s0.9,2.2,2.1,2.2C404,234.9,404.9,233.9,404.9,232.7   z"></path>	<path class="st19" d="M471,258.7c0,0-9.5-0.2-14.4,3.6c-4.9,3.8-15.4,8.9-24.5,9.8c-9.1,0.9-10.9,0-10.9,0s9.9,0.3,18.6-3.1   c8.8-3.4,13.9-9.1,20.4-11c6.4-1.9,10.4-1.5,10.4-1.5L471,258.7z"></path>	<path class="st19" d="M386.6,260.2c0,0,5.6,13,20.7,19.6c15.1,6.6,28-1,28-1s-9.9,10.8-28.5,3.1c-18.6-7.7-22.6-21.9-22.6-21.9   S385.3,259.3,386.6,260.2z"></path>	<path class="st19" d="M390,253.8c0,0,9.8,15.9,16.7,21c6.8,5,13.6,5,13.6,5s-10-1.9-17.4-10.8c-7.5-8.9-11.3-17.4-11.3-17.4   L390,253.8z"></path>	<path class="st19" d="M377.8,263.1c0,0-3.4,17.9,11.5,25.1c14.9,7.1,37,4.8,37,4.8s-26.3-1.3-37.1-7.7c-10.7-6.5-9.7-23-9.7-23   L377.8,263.1z"></path>	<path class="st19" d="M473.3,267.7c0,0-10.2-3.1-19.6,3.4c-9.4,6.5-12.9,12.3-18.4,15.3c-5.5,3-9,2.9-9,2.9s8.5,0.2,14.8-4.6   c6.4-4.9,10.4-11,17.6-13.6c7.2-2.5,17-1,17-1L473.3,267.7z"></path>	<g>		<path class="st2" d="M468.8,326.4c-0.3,0-7,0.6-7.9-4.8c-0.9-5.3,7.5-12.4,7.9-14.5c0.4-2.1,3.6-7.9,6.7-10.8    c3.1-2.9,4.6-2.7,6.3,0c1.7,2.7,6.8,11.2,2.2,18.5C479.4,322.1,471.2,326.4,468.8,326.4z"></path>		<path class="st20" d="M463.3,315.5c0,0-3.4,2.1-2.3,6.7c1.1,4.6,6.8,3.4,8.2,2.5c1.5-0.9,3.6-5.4,0.7-8.2    C467.1,313.7,463.3,315.5,463.3,315.5z"></path>		<path class="st20" d="M474.1,300.1c0,0-2.9,3.1-1.8,4.6c1.2,1.5,3.2,2.6,5.1,6.5c1.9,3.9-0.3,6.4,1.2,6.6c1.5,0.2,5.1-2,4.1-7.5    S476.6,296.4,474.1,300.1z"></path>		<path class="st3" d="M482,296.6c0,0,0.4,0.9-0.4,2.4c-0.8,1.5-2.5,1.4-2.6,1.3c-0.1-0.1-0.9-0.3-0.3,0.3c0.6,0.6,1.1,1.3,1.3,1.3    c0.2,0,0.1-0.6,0.8-1.1c0.7-0.6,1.5-1.3,2-1.6c0.5-0.3,0.8,0.4,0.8,0.4L482,296.6z"></path>		<path class="st3" d="M484.2,300.8c0,0,0.1,0.9-0.6,1.6c-0.7,0.7-2.4,1.3-2.4,1.3s-0.4,0-0.2,0.3c0.1,0.3,0.2,1,0.6,0.7    c0.4-0.3,2.5-2.5,2.9-2.2c0.4,0.2,0.5,0.5,0.5,0.5L484.2,300.8z"></path>		<path class="st3" d="M485.5,304.6c0,0-0.3,0.8-1,1.3c-0.7,0.6-1.5,0.9-1.7,1c-0.2,0.1-0.7-0.3-0.5,0.2c0.2,0.4,0.1,1.2,0.5,0.7    c0.4-0.5,1-0.8,1.5-1.2c0.6-0.3,1.2-0.4,1.3-0.3c0.1,0,0.3,0.2,0.3,0.2L485.5,304.6z"></path>		<path class="st3" d="M485.9,309.1c0,0-0.4,0.6-1.3,1.1c-0.9,0.5-1.5-0.1-1.5,0.2c0,0.3-0.2,1.3,0.2,1.1c0.4-0.2,2.5-1.2,2.5-1.2    L485.9,309.1z"></path>		<path class="st3" d="M484.9,313.1c0,0-0.6,1.1-1.1,1.3c-0.5,0.3-1.1,0-1.2,0.5c-0.1,0.5-0.5,2.4-0.5,2.4S484.4,314.5,484.9,313.1z    "></path>	</g>	<path class="st2" d="M486.2,244.7c-1.8-11.3-6.4-22.3-6.4-22.3l-20.4,3.4c0,0,7.2,16.4,5.5,19.9c-1.7,3.4-20.2-3.3-20.2-3.3   s0,0,0,0h-0.2v10.2h-7.5c0.6,0.4,1,0.7,1.4,0.8c1.2,0.5,13.2,14.3,30.9,13.6C487.1,266.3,488,256.1,486.2,244.7z"></path>	<path class="st17" d="M452.1,198.1c0,0,9.7-3.7,16.6,1.5c6.8,5.2,14.4,23.6,14.4,23.6s-2.8,4.3-14.2,5.4   c-11.4,1.1-13.5,1.1-13.5,1.1S448.3,204.5,452.1,198.1z"></path>	<path class="st17" d="M408.5,195.7c0,0-7.6-4.6-15.1-2.2c-7.6,2.4-15.9,24.1-15.9,24.1s2.8,4,15.5,6.3c12.7,2.3,9.9-6.3,9.9-6.3   L408.5,195.7z"></path>	<path class="st21" d="M460.9,229.4h-3.6c0,0-1.9-7.3-2.9-11.8c-1-4.5-1.4-10.3-1.4-10.3s0,7.4,0,10.3c0,2.9,0.6,5.6,0.6,5.6   l-2.7-3.3l3.2,5.4l1.8,8.9l5,0.2l4.1,8.2C465.1,242.5,463.4,235.1,460.9,229.4z"></path>	<polygon class="st21" points="397.1,224.3 399.2,224.3 403.5,207.6 401.6,217 404.9,214.7 401.6,219.7 400.7,226.1 417,228.5    396.7,227  "></polygon>	<g>		<polygon class="st22" points="429.8,234.8 424.6,234.4 425.7,239.8 423.4,240.9 422.1,234.7 420.8,232.6 422.9,230.1 424.6,231.5     431,231.6   "></polygon>		<path class="st23" d="M433.5,241.3c3.4,2.4,7.6,2.2,9.3-0.5c1.7-2.7,0.4-6.9-3-9.3c-3.4-2.4-7.6-2.2-9.3,0.5    C428.8,234.7,430.1,238.9,433.5,241.3z M434.6,239.6c-2.2-1.6-3.1-4.3-1.9-6c1.1-1.8,3.8-1.9,6-0.3c2.2,1.6,3.1,4.3,1.9,6    C439.5,241,436.8,241.2,434.6,239.6z"></path>		<path class="st23" d="M423.7,250c2.4,3.5,6.4,4.8,8.9,2.9c2.5-1.9,2.6-6.3,0.2-9.8c-2.4-3.5-6.4-4.8-8.9-2.9    C421.5,242.1,421.4,246.5,423.7,250z M425.4,248.8c-1.5-2.3-1.5-5.1,0.2-6.4c1.6-1.2,4.2-0.4,5.8,1.9c1.5,2.3,1.5,5.1-0.2,6.4    C429.5,251.9,426.9,251.1,425.4,248.8z"></path>		<polygon class="st24" points="420.8,232.6 398.2,226.8 398.1,225.8 422.9,230.1   "></polygon>		<polygon class="st24" points="422.9,230.1 414.2,207.2 413.2,207.3 420.8,232.6   "></polygon>		<path class="st25" d="M423.7,231.9c-0.4-0.4-1-0.3-1.3,0.1c-0.3,0.4-0.3,1,0.1,1.4c0.4,0.4,1,0.3,1.3-0.1    C424.2,232.9,424.1,232.3,423.7,231.9z"></path>	</g>	<path class="st2" d="M446.1,243.5c0,0-2.2-2.6-4.4-4.9c-2.2-2.4-5-3.4-7-3.1c-1.9,0.3-2.5,0.8-2.3,1.3c0.2,0.5,3.1,3.4,2.5,4.2   c-0.7,0.8-6.7-0.3-9.4,1.4c-2.7,1.7,0.1,4.4,0.1,4.4s-0.5,0.8-0.3,2.6c0.2,1.7,3.6,1.8,3.6,1.8s-0.5,0.4,0.8,1.7   c1.2,1.3,3.8,0.2,3.8,0.2l12.3,1.5L446.1,243.5z"></path>	<polygon class="st26" points="345.6,346.6 330.2,365 284.6,354.2 306.2,338  "></polygon>	<polygon class="st27" points="387.8,327.5 400.6,361.8 455.2,358.5 431.2,327  "></polygon>	<polygon class="st26" points="380.6,345.1 354.5,365.8 358.9,334.7  "></polygon>	<path class="st28" d="M338.3,332.5l-12.1-0.4l2.7-8.2l-13.1,1.4l0.2-8l-12.8-0.4l3.7-4.8l-25.8,10.4l10.5,2.1l-1,8l12.2,0.4l-0.5,8   l13.2-1c0,0-1.6,11.2-0.3,11.2C316.4,351.2,338.3,332.5,338.3,332.5z"></path>	<polygon class="st26" points="464.5,329.8 424.6,333 443.5,352.8 486,348.3  "></polygon>	<polygon class="st27" points="351.4,205.2 360.2,229.2 366.1,228.5 368.2,222.4 375.2,227 378.5,222.4 386.6,229.2 390.8,220.9    398.1,225.8 401.6,219.7 409.8,224.9 402.5,198.2  "></polygon>	<path class="st27" d="M360.5,219.9l-0.2,9.3c0,0,4.2,8.2,4.4,16.7c0.2,8.6-4.4,26.3-4.4,26.3l46.6,9.7c0,0,3.4-10.2,4.2-20.5   c0.7-10.3-0.5-29.7-0.5-29.7l-6.6-6.5l-5.8,5.4l-6.6-5.1l-4.8,5.5l-7.7-5.2l-3.6,3.4l-6.4-3.8l-4.4,1.5L360.5,219.9z"></path>	<path class="st2" d="M362.1,233.9c0,0-2.1,1.9-2.3,7.1c-0.2,5.2-0.5,14.1,3.8,15.2c4.3,1.1,7.8-2.9,6.9-11.5   C369.7,236,369,232.1,362.1,233.9z"></path></g><g>	<path class="st29" d="M140.9,201.1c0,0-3.6,11.9-10.9,17.2c-7.3,5.4-19.2,2.1-27-2.8c-7.8-4.9-16.8-5.6-16.8-5.6l15.6,34.2   c0,0,15.9,4.4,32.2-2c16.3-6.4,21.4-27,22.3-32.6c0.9-5.6,1.1-7.8,1.1-7.8S151.4,201.4,140.9,201.1z"></path>	<path class="st30" d="M92.6,216.4c0,0,12.3,22.6,13.5,23.9c1.2,1.2,17.8,4.5,17.8,4.5s-11,2.9-21.2-0.5S92.6,216.4,92.6,216.4z"></path>	<ellipse class="st1" cx="103" cy="319.6" rx="90" ry="11.2"></ellipse>	<path class="st31" d="M107.2,260.3c0,0,24.7-0.6,37.7,10.5c12.9,11.1,23.5,42.2,24.7,41.8c1.2-0.3,10.8-0.2,9.3,1.7   c-1.5,1.8-16.4,10.8-18.4,10.2c-2-0.6-15.9-7-20.1-11.5s-8-10.1-8-10.1l-29.6-0.6L95,279.9L107.2,260.3z"></path>	<path class="st32" d="M110.2,260.4c0,0,4.8,5,8,18.7c2.2,9.5,1.5,11.8,6.3,14.6c4.7,2.8,9.3,4.7,10.4,1.7c1.1-3.1,2.3-7.6,2.3-7.6   l-1.7,9l2.9-1.5c0,0-4.7,3.4-3.4,7.5c1.3,4.1,9.7,13.6,9.7,13.6s-4.4-3.4-7.9-7.7c-3.5-4.2-4.3-5.8-4.3-5.8l-3.5-0.1l-14.6,0.1   c0,0-11-16.9-11.3-18.5c-0.3-1.6,2.3-21.6,2.3-21.6L110.2,260.4z"></path>	<path class="st2" d="M63.7,205.8c0,0,1.7-2.3,2.6-5.5c0.9-3.2,0.8-7.6,0.8-7.6l18,6.6c0,0-1.1,8.8-0.6,10.5   c0.5,1.8,1.7,2.8,1.7,2.8s-4.7,3.6-6,4.1c-1.3,0.5-13.5-3.3-14.2-4c-0.7-0.6-3.6-4.9-3.6-4.9L63.7,205.8z"></path>	<path class="st33" d="M84.5,209.8c0,0,2,3.5-7.7,2.7c-9.7-0.8-13.1-6.7-13.1-6.7s-8.2,2.6-13.8,9.3c-5.6,6.8-12.1,36.7-14.4,48   c-2.9,14.1,1.2,29.3,1.2,29.3s5.9,29.5,41.6,20.4c33.2-8.4,36.9-26.8,33.2-46.1c-1.8-9.3-12-28.4-12-28.4s-6.5-22-8.4-24.7   C89.1,210.9,84.5,209.8,84.5,209.8z"></path>	<path class="st2" d="M41.8,292.6c0,0-3.9,21,23.5,22.7c27.5,1.7,31.5-1.8,34.5-0.4c2.9,1.4-0.7,2.5,10,7.2c10.7,4.6,15.1,5,15.1,5   s1.2,3,5,2.9c3.9-0.1,20.4-9.5,18.9-10.6c-1.6-1.1-9.1-0.3-10.7-0.6c-1.7-0.3-15.4-37.4-39.7-41.2   C74.1,273.6,43.7,276.6,41.8,292.6z"></path>	<path class="st7" d="M99.8,314.9c0,0-4.1-4.3-3.9-9c0.2-4.6,0.7-6.4,0.7-6.4s-1.6,4.4-1.8,7.3c-0.2,2.9,0.6,5.5,0.6,5.5l-4.4-1.6   l3.5,4.2L99.8,314.9z"></path>	<path class="st7" d="M84.5,205.8c0,0-3.4,2.3-9.7,0.4c-6.3-1.9-8.2-7.6-8.2-7.6l0.3-2.5c0,0,4.3,2.5,9.4,3.8   c5.1,1.3,8.5,1.1,8.5,1.1L84.5,205.8z"></path>	<path class="st2" d="M117.6,159.3c0,0-0.5,5,0.1,8.5c0.6,3.4,4.7,11-1.7,20.2c-6.4,9.2-20.8,15.4-38.4,12.5   c-17.6-2.9-25.2-14.2-28.1-19.2c-2.9-5-4-7.9-4-7.9s-2.7,3.3-6.1,2.4c-3.4-0.9-9.6-5-10.6-13.9c-0.9-8.9,4.5-9.5,6.1-10.2   c1.7-0.7,2.7-0.4,2.7-0.4s-13.4-20.1-1.5-42.1c11.9-22.1,45.5-26.2,68.2-8.9c22.7,17.3,18.7,37.7,17,43.3   C119.7,149,117.8,156.1,117.6,159.3z"></path>	<path class="st7" d="M33.1,164c0,0-1.5-3,1.3-5.2c2.8-2.2,7.4,3.9,7.8,6.9c0.4,3.1-1.9,5.8-4.4,2.4s-2.3-5.1-1.9-6.4   c0.4-1.3,0.8-1.6,0.8-1.6s-1.4-0.8-2.5,0.7C33,162.4,33.1,164,33.1,164z"></path>	<path class="st7" d="M90,167.1c0,0-1.1-2.3,3.4-2.5c4.2-0.2,5.1,0.8,5,1.7c-0.1,0.8,0.6,1.2,0.8,1c0.4-0.3,0.6-0.3,0-2.3   c-0.6-2.1-5.3-3-8-1.8c-2.7,1.2-3,2.9-2.3,3.7C89.7,167.7,90,167.1,90,167.1z"></path>	<path class="st10" d="M109.5,149.5c0,0-2.7-0.3-3.8,3.7s-1.9,8.7,0.6,10c2.5,1.2,5.3-1.4,6.1-4.8c0.8-3.4,1.1-6.9-0.4-7.9   C110.4,149.4,109.5,149.5,109.5,149.5z"></path>	<path class="st34" d="M61.8,147.8c0,0,2.1-5.6,4.7-6.7c2.6-1,5.5-0.5,5.9-0.8c0.4-0.3,0.7-1.9-0.3-2.4c-1.1-0.5-6,0.4-8.2,3.2   C61.6,143.8,61.3,149.1,61.8,147.8z"></path>	<path class="st34" d="M115.6,147.7c0,0-0.2-3.7-3-5.3c-2.8-1.6-4.3-0.5-5.1-0.8c-0.8-0.3-0.9-2.1-0.3-2.3c0.6-0.3,5.3-0.2,7.5,2.9   C116.8,145.3,115.7,148.5,115.6,147.7z"></path>	<path class="st11" d="M71.8,166.2c0,0-7.3-0.7-8.7,1.9c-1.3,2.5,3.6,3.7,6.9,3.7c3.4,0.1,6.7-0.2,7.2-2.7S73.2,166.2,71.8,166.2z"></path>	<path class="st11" d="M112.3,165.8c0,0-6.1-0.4-7.3,2.2c-1.2,2.6,2.8,3.5,5.6,3.4c2.8-0.1,5.5-0.5,6.1-3S113.4,165.8,112.3,165.8z"></path>	<path class="st12" d="M112.4,153.7c-0.4,1-1.8,1.3-3.2,0.7c-1.4-0.6-2.2-1.9-1.8-2.9c0.4-1,1.8-1.3,3.2-0.7   C112,151.4,112.8,152.7,112.4,153.7z"></path>	<path class="st13" d="M109.9,154.1c0.2-0.8,1-1.3,1.7-1.1c0.8,0.2,1.2,1,1,1.8c-0.2,0.8-1,1.3-1.7,1.1   C110.2,155.7,109.7,154.9,109.9,154.1z"></path>	<path class="st13" d="M109.9,156.8c0.1-0.2,0.3-0.4,0.5-0.3c0.2,0.1,0.4,0.3,0.3,0.5c-0.1,0.2-0.3,0.4-0.5,0.3   C109.9,157.3,109.8,157.1,109.9,156.8z"></path>	<g>		<path class="st10" d="M64.7,157.5c0,0-1.3-3.8,0.6-7c1.9-3.2,7.5-2.3,8.1,4.5c0.6,6.8-1.5,8.7-3.8,8.7    C67.4,163.8,65.2,160.8,64.7,157.5z"></path>		<path class="st12" d="M70.7,150.9c0.2,1-0.8,2.2-2.3,2.5c-1.5,0.3-2.8-0.2-3.1-1.3c-0.2-1,0.8-2.2,2.3-2.5    C69.2,149.3,70.5,149.9,70.7,150.9z"></path>		<path class="st13" d="M69.8,153.7c0-0.8,0.5-1.5,1.3-1.6c0.8,0,1.4,0.6,1.5,1.4c0,0.8-0.5,1.5-1.3,1.6    C70.5,155.2,69.8,154.5,69.8,153.7z"></path>		<path class="st13" d="M70.5,156.4c0-0.2,0.2-0.4,0.4-0.5c0.2,0,0.4,0.2,0.4,0.4c0,0.2-0.2,0.4-0.4,0.5    C70.7,156.8,70.5,156.6,70.5,156.4z"></path>	</g>	<path class="st9" d="M84.9,172.6c0,0,4.2,3.9,9.6,3.3c5.4-0.5,6-4.2,7.8-2.8c1.8,1.4,0.6,10.5-9.6,10.6   C82.5,183.8,79.8,171.8,84.9,172.6z"></path>	<path class="st35" d="M86.2,181.2c0,0,2.9-2.3,6.7-1.8c3.8,0.5,6,2.3,6,2.3s-2.8,2-6.9,1.6C88,183,86.2,181.2,86.2,181.2z"></path>	<path class="st29" d="M84.4,208.7c0,0,0.3,4.7-9.6,2.6c-9.9-2.1-10.4-6.5-10.4-6.5l-5.7,2.3c0,0,1,7.4,15.7,9.7   c16.1,2.5,14.3-5.2,14.3-5.2L84.4,208.7z"></path>	<path class="st36" d="M109.2,259.1c0,0,22.8,0.1,35.4,9.6c12.7,9.5,25.3,42.5,25.3,42.5s-5.2,4.8-9.3,7.4c-4.2,2.6-6.8,3.7-6.8,3.7   s-10.8-6-14.8-10.1c-3.8-3.9-6.8-8.3-6.8-8.3l-2-0.9l-19-21.9L109.2,259.1z"></path>	<path class="st37" d="M110.9,261.3c0,0,3.9,6.5,4.3,11.5c0.4,4.9,1.3,9.3,2.1,11.8c0.8,2.5,9.7,7.6,10.5,5.1   c0.8-2.5,1.6-8.7,2.5-10.4c0.9-1.7,0.4,6.1,0.6,9.1c0.2,3.1,2.6-2.4,2.8-2.1c0.2,0.3,0.6-1-0.3,3.5c-0.9,4.5-1.5,5.8-0.7,5.6   c0.8-0.3,1.8-0.6,4-6.9c2.3-6.3,7.9-9.1,7-7.4c-0.9,1.7-4.8,4.5-5.9,7.4c-1.2,3-3.3,7.8-2.5,7.9c0.8,0.1,3.8-1.2,3.8-0.5   c0,0.7-2.8,3.3-2.7,4.2c0.1,0.9-1.8,3.6,1.4,6.2c3.3,2.6,6.4,2.3,6.9,3.2c0.5,0.9,0.7,3.5,1.1,4c0.3,0.4,4.8,7,6.7,6.3   c1.9-0.7,6.8-5.4,8.3-5.4c1.4-0.1-2.7,3.3-4.3,4.6c-1.6,1.2-1.4,3-1.4,3l-1.2,0.6c0,0-8.2-4.4-13.8-9.2c-5.6-4.8-7.8-9.3-7.8-9.3   l-2-0.9l-19.3-20.3V261.3z"></path>	<path class="st30" d="M50.9,235.2c0,0-4.2,12.8-6.1,25c-1.8,12.2,0,24.9,0,24.9l-8.5,5.8c0,0-5.2-8.5-1.8-27.8   c3.3-19.4,5.5-23.1,5.5-23.1L50.9,235.2z"></path>	<path class="st38" d="M137.8,316.4c0,0-12.2-26.7-28.2-36.3c-16-9.7-52.8-5.9-60.4-1.1c-7.6,4.9-10,14.7-7.9,23.5   c2.1,8.8,14.6,14.4,25.3,15c10.6,0.5,28.1-3.4,28.9-1.8c0.8,1.6,0.8,0.3,1.3,0.7c0.5,0.4,1.6,0,1.6,0s-0.3,2,0.1,2c0.4,0,2,0,2,0   s5.4,3.7,10.3,6.2c4.9,2.4,10.8,4,10.8,4S131.1,320.2,137.8,316.4z"></path>	<path class="st38" d="M109.2,259.1c0,0-0.8,6.9-22.2,7.3c-21.4,0.4-27.9,2.5-39.4,6.5s-15.2,5.6-15.2,7.9c0,2.3,5.8,25,13.3,28.8   c7.6,3.8,67.5-27,67.5-27S115.3,270,109.2,259.1z"></path>	<path class="st39" d="M110.2,260.4c0,0-2.9,7.1-15.2,7.1c-12.2,0-24.9,0.3-37,3.2c-12.1,2.9-25,8.9-25.5,10.9   c-0.4,2,1.1,9.3,2.4,9.3s19-11.1,29.8-13.3c10.8-2.2,27,1.4,35.8-1.6s12.2-6.2,12.1-8.8C112.6,264.4,111.5,259.2,110.2,260.4z"></path>	<path class="st38" d="M107.2,262.5c0,0,1.2,0.1,2.9,3.6c1.7,3.5,1.4,6,1.4,6l1.5-2.2c0,0-0.8-5.2-2.1-7c-1.4-1.8-2.3-1.7-2.3-1.7   L107.2,262.5z"></path>	<polygon class="st38" points="83.3,267 84.5,277.9 81.5,277.9 80.5,267  "></polygon>	<polygon class="st38" points="47,273.6 50.6,284 48.1,285.3 44,274.6  "></polygon>	<path class="st36" d="M113.2,282.6c0,0-4-3-7.8-4.4c-3.8-1.4-5.7-2-5.7-2l2-0.7c0,0,6.8,2.6,8.3,3.2c1.6,0.6,3.1-3,3.3-5.4   C113.4,277.9,113.7,281.5,113.2,282.6z"></path>	<path class="st36" d="M35.1,291.2c0,0,5.6,20.5,22.2,24c16.5,3.5,36.3-0.5,37.2-0.4c0.8,0.2,1.3,1.4,1.3,1.4s0.7-0.4,1-0.4   s0.8,0.5,0.8,0.5l1-0.6v1.7l2.4,0.6c0,0,6,4.6,10,6.1c4,1.5,10.2,3.9,10.2,3.9s0.9-1.4,1-1.7c0.1-0.3,0-0.6-0.7-0.4   c-0.7,0.2-3.2-0.3-1.6-2.1c1.6-1.9,9.6-7.4,10.9-7.4c1.3,0-0.1-1.6-4.7,1c-4.6,2.6-7.3,5.7-9.1,6c-1.8,0.3-5.7,0-6.1-1.5   c-0.4-1.5,2.9-3.4,0-3s-3.7,0.6-4.3,0.3c-0.6-0.4-4.4-8.1-4.4-9.6c0-1.4,2.3-7.4,5-11.3c2.7-3.9,2.4-4.8,0.9-3.5   c-1.5,1.2-7.1,8.5-8.2,11.5c-1.1,3-1.3,7.1-1.8,3.7c-0.5-3.4,1.5-6.5,0.7-7c-0.8-0.6-2.8,3-2.8,3s0.3,3.6,0.1,1.3   c-0.3-2.4-2.4-5.9-2.4-5.9s-0.3,2.3-0.3,3.7s-8.9,1.4-10,0.5c-1.1-0.9-3.6,0.8-3.6,1.7c0,0.8-11.8,7.2-23,0.6   c-11.2-6.5-14.9-19.4-14.9-19.4L35.1,291.2z"></path>	<path class="st37" d="M42.8,286.9c0,0,5.2,19,20.5,21.6c15.4,2.5,30.6-4.9,32.2-5.5c1.5-0.6,4.2-3.2,4.2-1.6c0,1.6-0.9,3.1,0,3.2   c0.9,0.1,3.1-2.1,3.1-2.1s2.5-0.9,1.8,0.6s1.3,4.3,1.3,4.3l14,13.3l3,0.6v1.1l2.5,3l1.4-1.2l-3-2.2c0,0,0.2-2,0-2   c-0.2,0-3.6-0.3-3.6-0.3s-13.1-12.2-14-13.5c-0.8-1.4-1.5-3.6-1.1-4.4c0.5-0.9-0.4-1.7-1.7-1.1c-1.3,0.7-2.6,2.2-2.8,2   c-0.2-0.2,0.5-3.2-0.9-3.1c-1.4,0.1-8.3,4.5-14.2,5.7c-5.9,1.3-15.4,3.7-23.7,1.2c-8.3-2.5-13.3-9.8-15.1-13.2   c-1.8-3.4-2.7-7-2.7-7L42.8,286.9z"></path>	<path class="st37" d="M55.8,280.5c0,0,1.9,3.2-0.6,6.7c-2.4,3.5-8.3,6.4-8.3,6.4l0.5,1.7c0,0,7.6-3.7,9.3-8c1.7-4.3,0-7.3,0-7.3   L55.8,280.5z"></path>	<path class="st40" d="M61.6,112.6c0,0-4.4,9.3,5.6,18.2c10,8.9,18.3,6.9,18.3,6.9s-7.1-1.7-10.4-4c-3.3-2.4-5.4-8.4-5.4-8.4   s3.6,7.4,14,8.7s15.8-2.6,15.8-2.6s-8.6,0.5-12.8-0.5c-4.1-1.1-5.6-3.2-5.6-3.2s3.5,3,9.7,3c6.1,0,7.9-0.5,7.9-0.5   s-9.3-1.9-12.3-4.9c-3-3.1-4.1-6.8-4.1-6.8s3.6,7.3,11.3,9.6c7.8,2.3,13.4-0.1,23,4.7c9.5,4.8,6,16.7,6,16.7s8.7-9.4,4.4-21.4   c-4.3-12-11.1-15.5-11.1-15.5s5.3,2.6,9.6,10.9c4.3,8.3,3.6,10.7,3.6,10.7s4.3-6.5,0-17.6c-4.3-11.1-16.5-18.8-16.5-18.8   s4.9,2.8,6.8,3c1.9,0.2,3.6-1.1,3.6-1.1s-5.5,1-9-4.5c-3.5-5.5-15.4-20.8-41.5-16S45.7,91.5,45.7,91.5v-7.9c0,0-1.9,2.6-2.1,4.8   c-0.3,2.1,0,3.8,0,3.8s-2.1-0.7-6.1,0.5c-4,1.2-5.4,3.2-5.4,3.2s3-1.5,4.4-1.5c1.4,0,4.1-0.1,4.1-0.1s-12.2,0.9-16,18.6   c-3.9,17.7,6.2,28,4.2,34.9c-2,6.9-7.3,3.7-7.3,3.7s1.6,5.8,8.8,3.6c7.1-2.2,8.3-7.1,8.3-7.1s-1.1,3.4-1.9,4.6s-2.1,2-2.1,2   s6.4-1.8,7.8-9.4c1.4-7.5,1.7-14.2,2.9-19.9c1.2-5.6,10.7-12.2,10.7-12.2s-7.6,5.4-9.5,13.4c-1.9,7.9-0.9,17.6-0.9,17.6   s2.6-10,4.6-15.9c2-5.8,6-10.2,6-10.2s-4.3,6.7-4.9,9.4c-0.6,2.6-0.9,6.5-0.9,6.5s4.9-5.7,7.1-11.1   C59.6,117.5,61.6,112.6,61.6,112.6z"></path>	<path class="st41" d="M46.2,95.4c0,0,1.8-5.5,7-8.5c5.1-3,15-3.6,15-3.6s-11.4,1.8-14.8,5.1c-3.4,3.3-5.3,7.4-5.3,7.4   s2.5-3.2,5.8-4.5s6.1-1.5,6.1-1.5s-5.4,2-6.9,3.2c-1.5,1.2-3.3,2.8-3.3,2.8s2.8-2.3,14.6-2.2c11.8,0.1,23.5,6.5,23.5,6.5   s-14.8-3.8-22-4c-7.3-0.1-16,1.6-16,1.6s-1.6,1.2-1.6,3.4c0,2.2,0,4.1,0,4.1s-1.6-2.9-1.3-4.4c0.4-1.5,1.4-2.6,1.4-2.6   s-3.8,0.1-8.6,4.4c-4.9,4.2-4.8,16-4.8,16s-1.9-8.9,1.7-14.8S47.1,97,47.1,97s-7.2-1.9-12.7,2.9c-5.5,4.8-6.5,8.1-6.5,8.1   s2.7-6.4,8-10.5c5.3-4.1,8.9-2.2,8.9-2.2s-0.7-1.4-2.7-1.9c-2-0.5-3.9-0.4-3.9-0.4S43.8,91.5,46.2,95.4z"></path>	<path class="st41" d="M112.7,97.9c0,0-8.7-9.8-17.7-11.6c-9-1.9-13.4-0.9-13.4-0.9s9.4-3,20,2.2c10.5,5.2,14.3,12.1,14.3,12.1   L112.7,97.9z"></path>	<path class="st41" d="M28.8,113.5c0,0-3.5,10.1-0.9,18.8c2.7,8.6,6.3,9.9,6.3,16.6c-0.1,6.6-6.9,6.8-6.9,6.8s11.6,0.9,11.3-8.7   C38.3,137.4,26.5,139.6,28.8,113.5z"></path>	<path class="st41" d="M55.8,113.2c0,0-8.8,5.8-10.5,11.6c-1.7,5.7-1.7,13.1-2.5,17.3c-0.7,4.2-1.1,5.4-1.1,5.4s1.1-14.4,1.8-20.8   c0.8-6.4,8.6-11.5,8.6-11.5s-6.7,3.1-8.6,5.8c-1.9,2.7-2.3,4.8-2.3,4.8s-0.2-3.4,3.3-7.6C47.9,113.9,55.8,113.2,55.8,113.2z"></path>	<path class="st41" d="M61,106.3c0,0,2.7,1.1,0,9.3c-2.7,8.3-10.7,18.4-10.7,18.4s6.7-11.5,9-18.2C61.6,109.3,61,106.3,61,106.3z"></path>	<path class="st41" d="M63.6,111.9c0,0,2.5,12.9,9.9,18.7c7.4,5.8,20.6,2.9,20.6,2.9s-13.9,1.1-20.9-6.2   C66.2,120,63.6,111.9,63.6,111.9z"></path>	<path class="st41" d="M62.2,101.3c0,0,9.9-1.5,15,7.8c5.1,9.3,6.5,18.1,19.6,20.1c13.2,2,16.7,0.8,21.9,5c5.1,4.2,4.6,8.9,4.6,8.9   s1.4-8.5-4.8-12.6c-6.2-4.1-21.2-2.6-27-5.8c-5.8-3.2-8.4-9-8.4-9s6,6.9,10.9,8.2c4.9,1.3,11.1,1.2,11.1,1.2s-8.8-0.6-13.1-3.3   c-4.4-2.7-8.6-15.1-16.4-19.2S62.2,101.3,62.2,101.3z"></path>	<path class="st41" d="M129.2,134.2c0,0-3.3-14.9-12.4-21.2c-9.1-6.3-14.4-9.1-14.4-9.1s12.7,2.5,21.1,11.5   C131.8,124.4,130.1,132.8,129.2,134.2z"></path>	<path class="st42" d="M99,83.3c0,0,15.5,5.6-1.6,18.8s-35.8,10.5-35.8,10.5s7.3,6.4,8.5,7.5c1.1,1.2,3.5-2.8,4.3-3.1   c0.8-0.3,4.2,3.6,6.2,3.1c2-0.5,1-1.8,1.9-3.1c0.8-1.3,7.7,3.4,9.3,3.3c1.7-0.1-1.8-7.7-1.3-6.9c0.5,0.8,7,3.5,8.4,3.6   c1.4,0-2.3-5.4-1.4-5.2c0.8,0.3,10.6,4.5,9.4,2.4c-1.2-2.1-6.2-6.3-5.2-6.2c1,0.2,12.3,3.5,11.2,1.2c-1.2-2.3-4.2-4.8-3.8-5.4   c0.5-0.6,7.3,2.4,6,0c-1.3-2.4-6-6.6-6-6.6s2.4-3.2,2.5-3.2C111.4,94.2,105.7,85.5,99,83.3z"></path>	<path class="st42" d="M47.7,117.5c0,0-5.1,1.9-13.3-2.7c-8.2-4.6-5.6-10.8-5.6-10.8s-2.9,6.1-3.5,11.6c-0.6,5.6-1.1,9,0,7   c1.1-2,3.2-6.3,3.3-5.6c0.1,0.8,0.3,8.3,1.1,7.7c0.8-0.7,3.3-5.4,3.8-4.4c0.5,1,0.4,6.7,1.4,4.4c1-2.3,2.6-5.9,2.8-4.6   c0.1,1.3,0.5,6.1,1.1,5.2c0.5-1,2.2-4.5,2.2-3.5c0,0.9,0.5,8.5,0.5,8.5S43.3,121.1,47.7,117.5z"></path>	<path class="st29" d="M85.7,239.7c0,0-12.3,11.2-19.8,8s-5.3-24.2-5.3-24.2s-0.7-14.2-8.4-12.8c-9,1.6-17.9,30.1-10.7,45.8   c8.7,19,28.4,16.3,40,7.8c11.6-8.5,14.8-15.7,14.8-15.7L85.7,239.7z"></path>	<path class="st33" d="M88,239.3c0,0,4.8,4.1,5.6,4.8c0.8,0.7,5.7,2.7,5.5,3c-0.3,0.4-3.3,4.5-3.7,4.4c-0.3,0-7.1-4-8.9-5.6   c-1.8-1.6-3.5-4.4-3.5-4.4l3.3-4.1L88,239.3z"></path>	<path class="st43" d="M178.4,181.6l13.3-2.2l-1.3-9.7c0,0-10.5,5.5-14.2,7.4c-1-1.3-2.4-2.3-4.2-3.2l5.2-11.2L175,162l-4.4,11.4   c-0.3-0.1-0.6-0.2-1-0.3c0,0-1.8-0.3-4.4,0l-2.8-15.6l-6.3,2.5L161,174c-1.4,0.5-2.8,1.3-4.2,2.4l-8.2-11.5l-1.7,1.7l8.6,11   c-0.8,0.8-1.6,1.7-2.3,2.8c-0.4,0.6-0.8,1.3-1.2,1.9l-13-8.6l-2.9,6.5l14.4,5.3c-0.9,2.3-1.4,4.7-1.6,7l-3.2-1.2l-0.7,2.4l3.8,0.9   c0,2,0.2,3.9,0.7,5.6l-14.2,4l3,5.9l12.9-6.1c0.6,1,1.4,1.9,2.3,2.5c0.2,0.2,0.5,0.3,0.7,0.5l-6.8,10.7l2.2,1.1l6.2-11.1   c1.7,0.6,3.6,0.9,5.7,0.7l-3.7,15l9-0.1l-0.8-16c1-0.4,2-0.8,2.9-1.4l7.5,11.5l2.1-1.5l-8.3-10.9c1.2-0.9,2.4-2,3.3-3.4l11.2,8   l4.5-6.6l-13.3-5.8c1-2.3,1.8-4.6,2.3-6.9l13.7,1.9l0-2.7l-13.4-0.7C178.9,186.3,179,183.8,178.4,181.6z"></path>	<path class="st2" d="M140.9,201.1c0,0,3.4-10.5,6-12.1c2.5-1.6,5.3-1.1,7.6-2.6c2.3-1.5,3.6-1.9,3.9,0.4c0.3,2.3-5.5,5.9-6.3,6.3   c-0.8,0.5-2.5,7-2.5,7l-4.1,1.1L140.9,201.1z"></path>	<polygon class="st26" points="153.5,343 168.1,354.8 212.9,348.9 192.2,338.4  "></polygon>	<polygon class="st27" points="112.8,330.3 99.4,351.5 46.1,348.4 70.4,329.2  "></polygon>	<polygon class="st26" points="87.1,229.8 112.1,243.2 108.5,223.7  "></polygon>	<path class="st28" d="M161,334.4h11.9l-2.4-5.2l12.7,1.1v-5h12.6l-3.5-3.1l24.9,7l-10.3,1.1l0.8,5h-11.9l0.3,5l-12.9-0.9   c0,0,1.3,7,0,7C181.9,346.5,161,334.4,161,334.4z"></path>	<polygon class="st26" points="37.7,330.3 76.7,333.1 57.7,345.1 16.3,341.5  "></polygon>	<path class="st2" d="M86.5,239.7c0,0,0.5-4.1,2.6-6.8c2.1-2.7,4.9-4,6.9-3.9c2,0.1,2.7,0.5,2.5,1.1c-0.2,0.6-2.9,3.9-2.1,4.6   c0.8,0.7,6.9-1.1,9.9,0.4c2.9,1.5,0.3,4.6,0.3,4.6s0.6,0.8,0.6,2.6c-0.1,1.8-3.6,2.3-3.6,2.3s0.5,0.3-0.6,1.9c-1.1,1.5-4,0.7-4,0.7   l-6.8-0.5L86.5,239.7z"></path></g></svg>